<svg width="97" height="30" viewBox="0 0 97 30" fill="none" xmlns="http://www.w3.org/2000/svg">
  <path d="M86.5 25.5c-5.8 4.3-14.2 6.5-21.5 6.5-10.2 0-19.3-3.8-26.2-10.1-.5-.5-.1-1.2.6-.8 7.6 4.4 17 7.1 26.7 7.1 6.5 0 13.7-1.3 20.3-4.1 1-.4 1.8.7.1 1.4zm2.4-2.7c-.7-1-4.9-.4-6.7-.2-.6.1-.7-.4-.1-.8 3.3-2.3 8.7-1.6 9.3-.9.6.7-.2 5.7-3 8.1-.4.3-.8.2-.6-.3.6-1.5 1.9-4.9 1.1-5.9z" fill="currentColor"/>
  <path d="M84.9 2.5v-2.1c0-.3.2-.5.5-.5h9.3c.3 0 .5.2.5.5v1.8c0 .3-.3.7-.7 1.3l-4.8 6.9c1.8-.1 3.7.2 5.3 1.1.4.2.5.5.5.8v2.2c0 .3-.3.7-.7.5-2.9-1.5-6.7-1.7-9.9 0-.3.2-.7-.1-.7-.5v-2.1c0-.3 0-.9.3-1.4l5.6-8h-4.9c-.3 0-.5-.2-.5-.5z" fill="currentColor"/>
</svg>