<svg width="123" height="37" viewBox="0 0 123 37" fill="none" xmlns="http://www.w3.org/2000/svg">
  <path d="M18.5 0C8.3 0 0 8.3 0 18.5S8.3 37 18.5 37 37 28.7 37 18.5 28.7 0 18.5 0zm8.5 26.7c-.3.5-1 .7-1.5.3-4.1-2.5-9.2-3.1-15.3-1.7-.6.2-1.2-.2-1.3-.8-.2-.6.2-1.2.8-1.3 6.7-1.5 12.3-.9 16.9 1.9.5.3.7 1 .4 1.6zm2.3-5.1c-.4.6-1.2.8-1.8.4-4.7-2.9-11.8-3.7-17.3-2-.7.2-1.5-.2-1.7-.9-.2-.7.2-1.5.9-1.7 6.3-1.9 14.1-1 19.5 2.3.6.4.8 1.2.4 1.9zm.2-5.3c-5.6-3.3-14.8-3.6-20.2-2-.9.2-1.8-.3-2-1.1-.2-.9.3-1.8 1.1-2 6.1-1.9 16.3-1.5 22.7 2.3.8.5 1.1 1.5.6 2.3-.5.7-1.5 1-2.2.5z" fill="currentColor"/>
</svg>